<svg xmlns="http://www.w3.org/2000/svg" viewBox="0 0 222.33 94.46">
  <title>logo</title>
  <g id="レイヤー_2" data-name="レイヤー 2">
    <g id="レイヤー_1-2" data-name="レイヤー 1">
      <path d="M86.86,94.46a2.15,2.15,0,1,1,1.51-.63,2.16,2.16,0,0,1-1.51.63" style="fill: #231815"/>
      <path d="M94.65,89.87a2.14,2.14,0,1,1,2.91.82,2.07,2.07,0,0,1-1,.27,2.14,2.14,0,0,1-1.87-1.1M103,83.81a2.15,2.15,0,1,1,1.17.35,2.14,2.14,0,0,1-1.17-.35" style="fill: #231815"/>
      <path d="M106.94,74.38a2.15,2.15,0,1,1,1.51-.63,2.16,2.16,0,0,1-1.51.63" style="fill: #231815"/>
      <path d="M44.54,94.42a2.14,2.14,0,1,1,1.51-.63,2.18,2.18,0,0,1-1.51.63" style="fill: #231815"/>
      <path d="M52.32,89.83a2.14,2.14,0,1,1,2.92.83,2.12,2.12,0,0,1-1,.27,2.15,2.15,0,0,1-1.87-1.1m8.31-6.06a2.14,2.14,0,1,1,1.17.35,2.14,2.14,0,0,1-1.17-.35" style="fill: #231815"/>
      <path d="M86.86,94.46a2.15,2.15,0,1,1,1.51-.63,2.16,2.16,0,0,1-1.51.63" style="fill: #231815"/>
      <path d="M76.16,90.69a2.14,2.14,0,1,1,1,.27,2.1,2.1,0,0,1-1-.27M67.8,83.19h0a2.15,2.15,0,1,1,1.79,1,2.14,2.14,0,0,1-1.79-1" style="fill: #231815"/>
      <path d="M12.71,22c0-15-.28-17.44-8.65-18.15L.51,3.54C-.34,3-.05.42.8,0,7.89.28,12.71.42,18.66.42,24.33.42,29.15.28,36.24,0c.85.42,1.13,3,.28,3.54L33,3.83c-8.36.71-8.65,3.12-8.65,18.15V72.45c0,15,.28,17,8.65,18l3.54.42c.85.57.57,3.12-.28,3.55C29.15,94.14,24.33,94,18.66,94c-6,0-10.77.14-17.86.43C-.05,94-.34,91.73.51,90.88l3.54-.42c8.37-1,8.65-3,8.65-18Z" style="fill: #231815"/>
      <path d="M85,52.41H70.09a2.25,2.25,0,0,1-2.25-2.25h0V35.27a2.14,2.14,0,0,0-4.28,0V50.16h0a2.25,2.25,0,0,1-2.25,2.25H46.42a2.14,2.14,0,1,0,0,4.28H61.3a2.25,2.25,0,0,1,2.25,2.25h0V73.83a2.14,2.14,0,1,0,4.28,0V58.94h0a2.25,2.25,0,0,1,2.25-2.25H85a2.14,2.14,0,1,0,0-4.28" style="fill: #231815"/>
      <path d="M128.23,14.76a30.27,30.27,0,0,0,3-2.64c0-1.25,0-1.35.06-2.71l-.78,0a12.18,12.18,0,0,0-1.78.19l-.1-1.33a3,3,0,0,0,.49,0c.26,0,1.26-.06,2.2-.13,0-.92.05-1.41.05-2.17a4.68,4.68,0,0,0,0-.68h1.51a6.57,6.57,0,0,0-.15,1.53l0,1.22a.6.6,0,0,0,.32-.08l.47.57a6.22,6.22,0,0,0-.88,1.05c0,.26,0,.26,0,1.09a2,2,0,0,1,0,.41h0a4.7,4.7,0,0,1,.6-.54,6.68,6.68,0,0,1,4.44-1.83,4.38,4.38,0,0,1,3.31,1.33A4.31,4.31,0,0,1,142,13.23a5.06,5.06,0,0,1-1.43,3.53,5.12,5.12,0,0,1-3.62,1.31,8.78,8.78,0,0,1-2.68-.44v-.39a5.28,5.28,0,0,0-.16-1.09,7.11,7.11,0,0,0,2.87.62A3.51,3.51,0,0,0,140.1,15a3.88,3.88,0,0,0,.45-1.91,2.89,2.89,0,0,0-3-3.07c-1.44,0-3,.84-5,2.66v1.8c0,2.55,0,4,.11,4.64h-1.52a31.85,31.85,0,0,0,.1-4.36c0-.63,0-.8,0-1h0a4.4,4.4,0,0,1-.81.86A11.24,11.24,0,0,0,129,16.1Z" style="fill: #231815"/>
      <path d="M155.81,8a11.82,11.82,0,0,0,2.08.14l.89,0a19.33,19.33,0,0,0,.36-2.72V5.22l1.52.16a15.3,15.3,0,0,0-.29,1.54c-.1.55-.13.73-.21,1.15A13.8,13.8,0,0,0,163,7.54l.06,1.33-.47.08a24.16,24.16,0,0,1-2.71.37,45.33,45.33,0,0,1-1.1,4.48A45.74,45.74,0,0,1,157,18.88l-1.43-.6a32.41,32.41,0,0,0,3-8.89l-1.35,0-1,0h-.41Zm7.49,6a3.79,3.79,0,0,0-.68.92,2.2,2.2,0,0,0-.21.87c0,.89,1,1.4,2.72,1.4a11.71,11.71,0,0,0,3.6-.58l.13,1.44-.75.13a17.32,17.32,0,0,1-2.92.28c-2.71,0-4.14-.86-4.14-2.51a3.94,3.94,0,0,1,1.12-2.47Zm4.93-2.61a13.66,13.66,0,0,0-1.95-.13,15,15,0,0,0-4.1.54l-.13-1.3A19.16,19.16,0,0,1,166.5,10c.31,0,.54,0,1.72,0Z" style="fill: #231815"/>
      <path d="M186.33,5.68a13,13,0,0,0-.18,2c-.06,1.18-.16,5.11-.16,6.2a4.6,4.6,0,0,0,.45,2.63,2.73,2.73,0,0,0,2.37,1A4.52,4.52,0,0,0,193,14.65a9,9,0,0,0,.79-2.59,5.22,5.22,0,0,0,1.38.92,10.06,10.06,0,0,1-1.83,3.81,5.83,5.83,0,0,1-4.6,2,4.8,4.8,0,0,1-2.71-.7,3.42,3.42,0,0,1-1.2-1.73,8.35,8.35,0,0,1-.23-2.14c0-1,0-1.49.13-6.59,0-.47,0-.84,0-1.09a8.52,8.52,0,0,0,0-.91Z" style="fill: #231815"/>
      <path d="M214.47,5.32a27.12,27.12,0,0,0,1.18,5.29c1-.41,1-.41,3.84-1.38a5.82,5.82,0,0,0,1.07-.44l.55,1.46a39,39,0,0,0-5,1.59,10.46,10.46,0,0,0-3,1.67,2.38,2.38,0,0,0-.84,1.73c0,.84.52,1.4,1.56,1.67a12.42,12.42,0,0,0,2.71.24,16.73,16.73,0,0,0,4.77-.58l.15,1.61a8.44,8.44,0,0,0-1.23.1,30.71,30.71,0,0,1-3.7.23,8.68,8.68,0,0,1-4.35-.78,2.78,2.78,0,0,1-1.36-2.51,3.63,3.63,0,0,1,1.45-2.74,9.59,9.59,0,0,1,2.14-1.35,35.79,35.79,0,0,1-1.15-4.49,5.8,5.8,0,0,0-.26-1Z" style="fill: #231815"/>
      <path d="M135,34.68a21.23,21.23,0,0,0,4.64-5.27,1.6,1.6,0,0,1,.13-.21c-.24,0-.24,0-9,0a17.24,17.24,0,0,0-2,.08V27.79a11.54,11.54,0,0,0,2,.11h9.25a2.7,2.7,0,0,0,1-.11l.81.94a4.38,4.38,0,0,0-.67.89A25,25,0,0,1,136,35.7c.6.67,1.36,1.62,2.32,2.89l-1.2,1a25.74,25.74,0,0,0-3.11-4,26.8,26.8,0,0,0-3.23-3.06l1.09-.83a27.3,27.3,0,0,1,2.22,2Z" style="fill: #231815"/>
      <path d="M180.73,27.61a4,4,0,0,0-.55.18,25.63,25.63,0,0,1-3.52,1c0,2.27,0,2.56,0,3.08h3.63a9,9,0,0,0,1.91-.11v1.44a14.14,14.14,0,0,0-1.9-.08h-3.73a8.06,8.06,0,0,1-1.07,3.57,8.47,8.47,0,0,1-2.61,2.59,13.88,13.88,0,0,1-1.46.78,3.38,3.38,0,0,0-1-1.2,8,8,0,0,0,2.4-1.3,5.76,5.76,0,0,0,2.33-4.44h-4.23a14.37,14.37,0,0,0-1.95.08V31.73a9.48,9.48,0,0,0,2,.11h4.31c0-.62.05-1.59.05-2.85a33.38,33.38,0,0,1-4.7.42,3.8,3.8,0,0,0-.45-1.28l1,0a26.76,26.76,0,0,0,6.84-1,6.53,6.53,0,0,0,1.88-.78Z" style="fill: #231815"/>
      <path d="M218.36,37.36A4.76,4.76,0,0,0,220.92,33a4.19,4.19,0,0,0-2.4-3.94,4.28,4.28,0,0,0-1.82-.44,23.51,23.51,0,0,1-1.62,6.49c-.92,2.13-1.9,3.1-3.11,3.1-1.64,0-2.84-1.73-2.84-4.1a6.75,6.75,0,0,1,1.73-4.54,6.93,6.93,0,0,1,5.33-2.19c3.68,0,6.13,2.27,6.13,5.69a6,6,0,0,1-3.55,5.61,10.67,10.67,0,0,1-2.71.84,3.2,3.2,0,0,0-.7-1.31,8.88,8.88,0,0,0,3-.87M213,29.44a5.54,5.54,0,0,0-2.53,4.7c0,1.48.65,2.64,1.49,2.64.63,0,1.25-.75,1.91-2.27a22.19,22.19,0,0,0,1.44-5.84,4.57,4.57,0,0,0-2.32.76" style="fill: #231815"/>
      <path d="M134.34,61.09a11.8,11.8,0,0,0,.08-1.73V55.81a5.71,5.71,0,0,1,0-.75,2.69,2.69,0,0,1-.5.36,25.34,25.34,0,0,1-4.88,2,4.4,4.4,0,0,0-.7-1.27,20.41,20.41,0,0,0,7.78-3.54,16.21,16.21,0,0,0,2.17-1.93l-.32,0-.73,0H131.6a11,11,0,0,0-1.77.1V49.39a10.12,10.12,0,0,0,1.77.11h2.81V48.2a8.38,8.38,0,0,0-.06-1.25h1.52a6.49,6.49,0,0,0-.08,1.23V49.5H139a2.36,2.36,0,0,0,.83-.11l.7.81a4.38,4.38,0,0,0-.66.68A24.19,24.19,0,0,1,136.4,54a30.21,30.21,0,0,1,5.86,2.72l-.8,1.28a30.14,30.14,0,0,0-4.7-2.53,9.26,9.26,0,0,1-1-.49,2,2,0,0,1,0,.34,4.45,4.45,0,0,1,0,.54v3.5a11.25,11.25,0,0,0,.08,1.75Z" style="fill: #231815"/>
      <path d="M147.44,51.2A18.69,18.69,0,0,1,149,54.87l-1.31.44a13.66,13.66,0,0,0-1.51-3.7Zm9.2,0a7.28,7.28,0,0,0-.21.75,13.45,13.45,0,0,1-2.33,5.42,12.62,12.62,0,0,1-4.67,3.62,4.08,4.08,0,0,0-.92-1.1,10,10,0,0,0,6.13-6.31,9.14,9.14,0,0,0,.58-2.68Zm-5.84-.62a17.32,17.32,0,0,1,1.57,3.55l-1.28.44a15,15,0,0,0-1.49-3.62Z" style="fill: #231815"/>
      <path d="M164.27,60.77a11.48,11.48,0,0,0,.1-1.88V49a9.14,9.14,0,0,0-.1-1.78h1.64a12.93,12.93,0,0,0-.08,1.83v2.89a42.37,42.37,0,0,1,7.25,3.42l-.81,1.41a34.43,34.43,0,0,0-6-3.18,3.34,3.34,0,0,1-.54-.28,9.6,9.6,0,0,1,.06,1.33v4.23a14.47,14.47,0,0,0,.08,1.88Z" style="fill: #231815"/>
      <path d="M178.34,53.85a10.85,10.85,0,0,0,.06-1.46V49.79c0-.63,0-1,0-1.38.42,0,1,.06,1.51.06h8a3.55,3.55,0,0,0,1.38-.15l.79.75a2.46,2.46,0,0,0-.26,1c-.49,3.71-1.3,5.73-3,7.54a12.76,12.76,0,0,1-4.77,3,4.17,4.17,0,0,0-.92-1.31,10.47,10.47,0,0,0,3.36-1.64c2.32-1.65,3.44-4,3.84-7.9h-8.42v2.59a13.12,13.12,0,0,0,.06,1.48Z" style="fill: #231815"/>
      <path d="M193.41,53.2a17.71,17.71,0,0,0,2.24.1h9.11a13.28,13.28,0,0,0,2.19-.1V54.8a19,19,0,0,0-2.21-.08h-9.08a17.74,17.74,0,0,0-2.26.08Z" style="fill: #231815"/>
      <path d="M216.64,47.33a2.23,2.23,0,0,0-.36.63,14.05,14.05,0,0,1-.71,1.41,1.51,1.51,0,0,1,.4,0h.19l4.14-.07a2.28,2.28,0,0,0,.94-.13l.8.78a2.45,2.45,0,0,0-.36.84,16.82,16.82,0,0,1-3.26,6.15A15.94,15.94,0,0,1,212.75,61a3.26,3.26,0,0,0-1-1.18,13.6,13.6,0,0,0,5.68-4,14.28,14.28,0,0,0,2.77-5.29l-5.3.08a16.33,16.33,0,0,1-3.84,4.18,3,3,0,0,0-1.1-1,12.31,12.31,0,0,0,4.1-4.52,6.79,6.79,0,0,0,1-2.3Z" style="fill: #231815"/>
      <path d="M131.53,71.3a11.14,11.14,0,0,0-.13,1.9v8.71a10.9,10.9,0,0,0,.13,1.9h-1.8a10.53,10.53,0,0,0,.13-1.9V73.2a10.31,10.31,0,0,0-.13-1.9Z" style="fill: #231815"/>
      <polygon points="140.74 83.9 139.4 83.9 139.4 80.01 135.5 80.01 135.5 78.68 139.4 78.68 139.4 74.79 140.74 74.79 140.74 78.68 144.65 78.68 144.65 80.01 140.74 80.01 140.74 83.9" style="fill: #231815"/>
      <polygon points="152.93 86.29 149.47 86.29 149.47 71.3 152.93 71.3 152.93 72.57 150.92 72.57 150.92 85.02 152.93 85.02 152.93 86.29" style="fill: #231815"/>
      <path d="M173.24,71.79a6,6,0,0,0-.59.55,27.14,27.14,0,0,1-3.89,3.39v6.73a13.38,13.38,0,0,0,.08,1.91h-1.65a10.74,10.74,0,0,0,.1-1.9V76.64a25.3,25.3,0,0,1-6.13,2.77,4,4,0,0,0-.76-1.3,23.22,23.22,0,0,0,8.45-4.2,13.36,13.36,0,0,0,3.07-3.06Z" style="fill: #231815"/>
      <path d="M181.54,74.8a18.69,18.69,0,0,1,1.61,3.66l-1.31.44a13.66,13.66,0,0,0-1.51-3.7Zm9.2,0a7.28,7.28,0,0,0-.21.75,13.45,13.45,0,0,1-2.33,5.42,12.62,12.62,0,0,1-4.67,3.62,4.08,4.08,0,0,0-.92-1.1,10,10,0,0,0,6.13-6.31,9.14,9.14,0,0,0,.58-2.68Zm-5.84-.62a17.39,17.39,0,0,1,1.57,3.55l-1.28.44a15,15,0,0,0-1.49-3.62Z" style="fill: #231815"/>
      <path d="M200.31,84.37a11.48,11.48,0,0,0,.1-1.88V72.61a9.14,9.14,0,0,0-.1-1.78h1.64a12.93,12.93,0,0,0-.08,1.83v2.89A42.37,42.37,0,0,1,209.12,79l-.81,1.41a34.38,34.38,0,0,0-6-3.18,3.32,3.32,0,0,1-.53-.28,9.86,9.86,0,0,1,.06,1.33v4.23a14.47,14.47,0,0,0,.08,1.88Z" style="fill: #231815"/>
      <polygon points="220.25 85.02 220.25 72.56 218.24 72.56 218.24 71.3 221.7 71.3 221.7 86.28 218.24 86.28 218.24 85.02 220.25 85.02" style="fill: #231815"/>
    </g>
  </g>
</svg>
